<?xml version="1.0" encoding="UTF-8" standalone="no"?>
<!DOCTYPE svg PUBLIC "-//W3C//DTD SVG 1.1//EN"
 "http://www.w3.org/Graphics/SVG/1.1/DTD/svg11.dtd">
<!-- Generated by graphviz version 2.43.0 (0)
 -->
<!-- Title: Espera_procesos.hh Pages: 1 -->
<svg width="168pt" height="252pt"
 viewBox="0.00 0.00 168.00 252.00" xmlns="http://www.w3.org/2000/svg" xmlns:xlink="http://www.w3.org/1999/xlink">
<g id="graph0" class="graph" transform="scale(1 1) rotate(0) translate(4 248)">
<title>Espera_procesos.hh</title>
<polygon fill="white" stroke="transparent" points="-4,4 -4,-248 164,-248 164,4 -4,4"/>
<!-- Node1 -->
<g id="node1" class="node">
<title>Node1</title>
<g id="a_node1"><a xlink:title="Especificacion de la clase Espera_procesos.">
<polygon fill="#bfbfbf" stroke="black" points="0,-224.5 0,-243.5 113,-243.5 113,-224.5 0,-224.5"/>
<text text-anchor="middle" x="56.5" y="-231.5" font-family="Helvetica,sans-Serif" font-size="10.00">Espera_procesos.hh</text>
</a>
</g>
</g>
<!-- Node2 -->
<g id="node2" class="node">
<title>Node2</title>
<g id="a_node2"><a xlink:href="Cluster_8hh.html" target="_top" xlink:title="Especificación de la clase Cluster.">
<polygon fill="white" stroke="black" points="64.5,-112.5 64.5,-131.5 130.5,-131.5 130.5,-112.5 64.5,-112.5"/>
<text text-anchor="middle" x="97.5" y="-119.5" font-family="Helvetica,sans-Serif" font-size="10.00">Cluster.hh</text>
</a>
</g>
</g>
<!-- Node1&#45;&gt;Node2 -->
<g id="edge1" class="edge">
<title>Node1&#45;&gt;Node2</title>
<path fill="none" stroke="midnightblue" d="M58.72,-224.46C62.08,-211.91 68.86,-187.83 76.5,-168 79.99,-158.95 84.46,-149.16 88.39,-141.03"/>
<polygon fill="midnightblue" stroke="midnightblue" points="91.65,-142.32 92.95,-131.81 85.38,-139.22 91.65,-142.32"/>
</g>
<!-- Node4 -->
<g id="node4" class="node">
<title>Node4</title>
<g id="a_node4"><a xlink:href="Proceso_8hh.html" target="_top" xlink:title="Especificacion de la clase Proceso.">
<polygon fill="white" stroke="black" points="73.5,-0.5 73.5,-19.5 143.5,-19.5 143.5,-0.5 73.5,-0.5"/>
<text text-anchor="middle" x="108.5" y="-7.5" font-family="Helvetica,sans-Serif" font-size="10.00">Proceso.hh</text>
</a>
</g>
</g>
<!-- Node1&#45;&gt;Node4 -->
<g id="edge8" class="edge">
<title>Node1&#45;&gt;Node4</title>
<path fill="none" stroke="midnightblue" d="M50.69,-224.14C33.63,-196.88 -13.02,-112.73 21.5,-56 30.96,-40.46 47.71,-30.05 64,-23.19"/>
<polygon fill="midnightblue" stroke="midnightblue" points="65.4,-26.4 73.49,-19.55 62.9,-19.87 65.4,-26.4"/>
</g>
<!-- Node5 -->
<g id="node5" class="node">
<title>Node5</title>
<g id="a_node5"><a xlink:href="Prioridad_8hh.html" target="_top" xlink:title="Especificacion de la clase Prioridad.">
<polygon fill="white" stroke="black" points="85,-168.5 85,-187.5 160,-187.5 160,-168.5 85,-168.5"/>
<text text-anchor="middle" x="122.5" y="-175.5" font-family="Helvetica,sans-Serif" font-size="10.00">Prioridad.hh</text>
</a>
</g>
</g>
<!-- Node1&#45;&gt;Node5 -->
<g id="edge5" class="edge">
<title>Node1&#45;&gt;Node5</title>
<path fill="none" stroke="midnightblue" d="M67.1,-224.32C76.96,-216.26 91.85,-204.08 103.72,-194.37"/>
<polygon fill="midnightblue" stroke="midnightblue" points="106.18,-196.88 111.7,-187.83 101.75,-191.46 106.18,-196.88"/>
</g>
<!-- Node3 -->
<g id="node3" class="node">
<title>Node3</title>
<g id="a_node3"><a xlink:href="Procesador_8hh.html" target="_top" xlink:title="Especificacion de la clase Procesador.">
<polygon fill="white" stroke="black" points="30.5,-56.5 30.5,-75.5 116.5,-75.5 116.5,-56.5 30.5,-56.5"/>
<text text-anchor="middle" x="73.5" y="-63.5" font-family="Helvetica,sans-Serif" font-size="10.00">Procesador.hh</text>
</a>
</g>
</g>
<!-- Node2&#45;&gt;Node3 -->
<g id="edge2" class="edge">
<title>Node2&#45;&gt;Node3</title>
<path fill="none" stroke="midnightblue" d="M93.54,-112.08C90.29,-104.77 85.58,-94.18 81.55,-85.1"/>
<polygon fill="midnightblue" stroke="midnightblue" points="84.65,-83.47 77.39,-75.75 78.25,-86.31 84.65,-83.47"/>
</g>
<!-- Node2&#45;&gt;Node4 -->
<g id="edge4" class="edge">
<title>Node2&#45;&gt;Node4</title>
<path fill="none" stroke="midnightblue" d="M104.91,-112.41C111.78,-103.84 121.51,-89.98 125.5,-76 130,-60.25 124.45,-42.21 118.51,-29.14"/>
<polygon fill="midnightblue" stroke="midnightblue" points="121.47,-27.24 113.86,-19.87 115.22,-30.37 121.47,-27.24"/>
</g>
<!-- Node3&#45;&gt;Node4 -->
<g id="edge3" class="edge">
<title>Node3&#45;&gt;Node4</title>
<path fill="none" stroke="midnightblue" d="M79.28,-56.08C84.17,-48.53 91.33,-37.49 97.33,-28.23"/>
<polygon fill="midnightblue" stroke="midnightblue" points="100.33,-30.05 102.83,-19.75 94.45,-26.24 100.33,-30.05"/>
</g>
<!-- Node5&#45;&gt;Node2 -->
<g id="edge7" class="edge">
<title>Node5&#45;&gt;Node2</title>
<path fill="none" stroke="midnightblue" d="M118.37,-168.08C114.99,-160.77 110.08,-150.18 105.88,-141.1"/>
<polygon fill="midnightblue" stroke="midnightblue" points="108.93,-139.36 101.55,-131.75 102.58,-142.3 108.93,-139.36"/>
</g>
<!-- Node5&#45;&gt;Node4 -->
<g id="edge6" class="edge">
<title>Node5&#45;&gt;Node4</title>
<path fill="none" stroke="midnightblue" d="M126.87,-168.31C131.06,-159.44 137.1,-145.14 139.5,-132 145.57,-98.77 149.53,-88.25 139.5,-56 136.27,-45.62 129.72,-35.52 123.48,-27.53"/>
<polygon fill="midnightblue" stroke="midnightblue" points="126.08,-25.19 116.98,-19.77 120.71,-29.68 126.08,-25.19"/>
</g>
</g>
</svg>
