<?xml version="1.0" encoding="UTF-8" standalone="no"?>
<!DOCTYPE svg PUBLIC "-//W3C//DTD SVG 1.1//EN"
 "http://www.w3.org/Graphics/SVG/1.1/DTD/svg11.dtd">
<!-- Generated by graphviz version 2.43.0 (0)
 -->
<!-- Title: Prioridad.hh Pages: 1 -->
<svg width="168pt" height="196pt"
 viewBox="0.00 0.00 167.50 196.00" xmlns="http://www.w3.org/2000/svg" xmlns:xlink="http://www.w3.org/1999/xlink">
<g id="graph0" class="graph" transform="scale(1 1) rotate(0) translate(4 192)">
<title>Prioridad.hh</title>
<polygon fill="white" stroke="transparent" points="-4,4 -4,-192 163.5,-192 163.5,4 -4,4"/>
<!-- Node1 -->
<g id="node1" class="node">
<title>Node1</title>
<g id="a_node1"><a xlink:title="Especificacion de la clase Prioridad.">
<polygon fill="#bfbfbf" stroke="black" points="0,-168.5 0,-187.5 75,-187.5 75,-168.5 0,-168.5"/>
<text text-anchor="middle" x="37.5" y="-175.5" font-family="Helvetica,sans-Serif" font-size="10.00">Prioridad.hh</text>
</a>
</g>
</g>
<!-- Node2 -->
<g id="node2" class="node">
<title>Node2</title>
<g id="a_node2"><a xlink:href="Proceso_8hh.html" target="_top" xlink:title="Especificacion de la clase Proceso.">
<polygon fill="white" stroke="black" points="10.5,-0.5 10.5,-19.5 80.5,-19.5 80.5,-0.5 10.5,-0.5"/>
<text text-anchor="middle" x="45.5" y="-7.5" font-family="Helvetica,sans-Serif" font-size="10.00">Proceso.hh</text>
</a>
</g>
</g>
<!-- Node1&#45;&gt;Node2 -->
<g id="edge1" class="edge">
<title>Node1&#45;&gt;Node2</title>
<path fill="none" stroke="midnightblue" d="M34.77,-168.49C32.05,-159.52 28.06,-144.94 26.5,-132 22.11,-95.55 32.28,-53.23 39.37,-29.53"/>
<polygon fill="midnightblue" stroke="midnightblue" points="42.78,-30.36 42.44,-19.78 36.1,-28.27 42.78,-30.36"/>
</g>
<!-- Node3 -->
<g id="node3" class="node">
<title>Node3</title>
<g id="a_node3"><a xlink:href="Cluster_8hh.html" target="_top" xlink:title="Especificación de la clase Cluster.">
<polygon fill="white" stroke="black" points="35.5,-112.5 35.5,-131.5 101.5,-131.5 101.5,-112.5 35.5,-112.5"/>
<text text-anchor="middle" x="68.5" y="-119.5" font-family="Helvetica,sans-Serif" font-size="10.00">Cluster.hh</text>
</a>
</g>
</g>
<!-- Node1&#45;&gt;Node3 -->
<g id="edge2" class="edge">
<title>Node1&#45;&gt;Node3</title>
<path fill="none" stroke="midnightblue" d="M42.62,-168.08C46.91,-160.61 53.16,-149.72 58.44,-140.52"/>
<polygon fill="midnightblue" stroke="midnightblue" points="61.53,-142.17 63.48,-131.75 55.46,-138.68 61.53,-142.17"/>
</g>
<!-- Node3&#45;&gt;Node2 -->
<g id="edge5" class="edge">
<title>Node3&#45;&gt;Node2</title>
<path fill="none" stroke="midnightblue" d="M66.7,-112.37C62.98,-94.62 54.42,-53.67 49.39,-29.6"/>
<polygon fill="midnightblue" stroke="midnightblue" points="52.77,-28.66 47.3,-19.59 45.92,-30.1 52.77,-28.66"/>
</g>
<!-- Node4 -->
<g id="node4" class="node">
<title>Node4</title>
<g id="a_node4"><a xlink:href="Procesador_8hh.html" target="_top" xlink:title="Especificacion de la clase Procesador.">
<polygon fill="white" stroke="black" points="73.5,-56.5 73.5,-75.5 159.5,-75.5 159.5,-56.5 73.5,-56.5"/>
<text text-anchor="middle" x="116.5" y="-63.5" font-family="Helvetica,sans-Serif" font-size="10.00">Procesador.hh</text>
</a>
</g>
</g>
<!-- Node3&#45;&gt;Node4 -->
<g id="edge3" class="edge">
<title>Node3&#45;&gt;Node4</title>
<path fill="none" stroke="midnightblue" d="M76.43,-112.08C83.35,-104.3 93.57,-92.8 101.95,-83.37"/>
<polygon fill="midnightblue" stroke="midnightblue" points="104.69,-85.55 108.72,-75.75 99.46,-80.9 104.69,-85.55"/>
</g>
<!-- Node4&#45;&gt;Node2 -->
<g id="edge4" class="edge">
<title>Node4&#45;&gt;Node2</title>
<path fill="none" stroke="midnightblue" d="M105.09,-56.32C94.39,-48.18 78.16,-35.84 65.34,-26.09"/>
<polygon fill="midnightblue" stroke="midnightblue" points="67.19,-23.1 57.11,-19.83 62.96,-28.67 67.19,-23.1"/>
</g>
</g>
</svg>
