<?xml version="1.0" encoding="UTF-8" standalone="no"?>
<!DOCTYPE svg PUBLIC "-//W3C//DTD SVG 1.1//EN"
 "http://www.w3.org/Graphics/SVG/1.1/DTD/svg11.dtd">
<!-- Generated by graphviz version 2.43.0 (0)
 -->
<!-- Title: Cluster.cc Pages: 1 -->
<svg width="121pt" height="196pt"
 viewBox="0.00 0.00 121.00 196.00" xmlns="http://www.w3.org/2000/svg" xmlns:xlink="http://www.w3.org/1999/xlink">
<g id="graph0" class="graph" transform="scale(1 1) rotate(0) translate(4 192)">
<title>Cluster.cc</title>
<polygon fill="white" stroke="transparent" points="-4,4 -4,-192 117,-192 117,4 -4,4"/>
<!-- Node1 -->
<g id="node1" class="node">
<title>Node1</title>
<g id="a_node1"><a xlink:title=" ">
<polygon fill="#bfbfbf" stroke="black" points="45.5,-168.5 45.5,-187.5 110.5,-187.5 110.5,-168.5 45.5,-168.5"/>
<text text-anchor="middle" x="78" y="-175.5" font-family="Helvetica,sans-Serif" font-size="10.00">Cluster.cc</text>
</a>
</g>
</g>
<!-- Node2 -->
<g id="node2" class="node">
<title>Node2</title>
<g id="a_node2"><a xlink:href="Cluster_8hh.html" target="_top" xlink:title="Especificación de la clase Cluster.">
<polygon fill="white" stroke="black" points="45,-112.5 45,-131.5 111,-131.5 111,-112.5 45,-112.5"/>
<text text-anchor="middle" x="78" y="-119.5" font-family="Helvetica,sans-Serif" font-size="10.00">Cluster.hh</text>
</a>
</g>
</g>
<!-- Node1&#45;&gt;Node2 -->
<g id="edge1" class="edge">
<title>Node1&#45;&gt;Node2</title>
<path fill="none" stroke="midnightblue" d="M78,-168.08C78,-161.01 78,-150.86 78,-141.99"/>
<polygon fill="midnightblue" stroke="midnightblue" points="81.5,-141.75 78,-131.75 74.5,-141.75 81.5,-141.75"/>
</g>
<!-- Node3 -->
<g id="node3" class="node">
<title>Node3</title>
<g id="a_node3"><a xlink:href="Procesador_8hh.html" target="_top" xlink:title="Especificacion de la clase Procesador.">
<polygon fill="white" stroke="black" points="0,-56.5 0,-75.5 86,-75.5 86,-56.5 0,-56.5"/>
<text text-anchor="middle" x="43" y="-63.5" font-family="Helvetica,sans-Serif" font-size="10.00">Procesador.hh</text>
</a>
</g>
</g>
<!-- Node2&#45;&gt;Node3 -->
<g id="edge2" class="edge">
<title>Node2&#45;&gt;Node3</title>
<path fill="none" stroke="midnightblue" d="M72.22,-112.08C67.33,-104.53 60.17,-93.49 54.17,-84.23"/>
<polygon fill="midnightblue" stroke="midnightblue" points="57.05,-82.24 48.67,-75.75 51.17,-86.05 57.05,-82.24"/>
</g>
<!-- Node4 -->
<g id="node4" class="node">
<title>Node4</title>
<g id="a_node4"><a xlink:href="Proceso_8hh.html" target="_top" xlink:title="Especificacion de la clase Proceso.">
<polygon fill="white" stroke="black" points="43,-0.5 43,-19.5 113,-19.5 113,-0.5 43,-0.5"/>
<text text-anchor="middle" x="78" y="-7.5" font-family="Helvetica,sans-Serif" font-size="10.00">Proceso.hh</text>
</a>
</g>
</g>
<!-- Node2&#45;&gt;Node4 -->
<g id="edge4" class="edge">
<title>Node2&#45;&gt;Node4</title>
<path fill="none" stroke="midnightblue" d="M82.81,-112.26C89.05,-99.87 98.73,-76.42 95,-56 93.31,-46.76 89.83,-36.95 86.45,-28.85"/>
<polygon fill="midnightblue" stroke="midnightblue" points="89.63,-27.4 82.37,-19.69 83.24,-30.25 89.63,-27.4"/>
</g>
<!-- Node3&#45;&gt;Node4 -->
<g id="edge3" class="edge">
<title>Node3&#45;&gt;Node4</title>
<path fill="none" stroke="midnightblue" d="M48.78,-56.08C53.67,-48.53 60.83,-37.49 66.83,-28.23"/>
<polygon fill="midnightblue" stroke="midnightblue" points="69.83,-30.05 72.33,-19.75 63.95,-26.24 69.83,-30.05"/>
</g>
</g>
</svg>
