<?xml version="1.0" encoding="UTF-8" standalone="no"?>
<!DOCTYPE svg PUBLIC "-//W3C//DTD SVG 1.1//EN"
 "http://www.w3.org/Graphics/SVG/1.1/DTD/svg11.dtd">
<!-- Generated by graphviz version 2.43.0 (0)
 -->
<!-- Title: program.cc Pages: 1 -->
<svg width="238pt" height="308pt"
 viewBox="0.00 0.00 237.88 308.00" xmlns="http://www.w3.org/2000/svg" xmlns:xlink="http://www.w3.org/1999/xlink">
<g id="graph0" class="graph" transform="scale(1 1) rotate(0) translate(4 304)">
<title>program.cc</title>
<polygon fill="white" stroke="transparent" points="-4,4 -4,-304 233.88,-304 233.88,4 -4,4"/>
<!-- Node1 -->
<g id="node1" class="node">
<title>Node1</title>
<g id="a_node1"><a xlink:title="Archivo del programa principal encargado de recibir instrucciones y activar las funciones correspondi...">
<polygon fill="#bfbfbf" stroke="black" points="136.98,-280.5 136.98,-299.5 207.98,-299.5 207.98,-280.5 136.98,-280.5"/>
<text text-anchor="middle" x="172.48" y="-287.5" font-family="Helvetica,sans-Serif" font-size="10.00">program.cc</text>
</a>
</g>
</g>
<!-- Node2 -->
<g id="node2" class="node">
<title>Node2</title>
<g id="a_node2"><a xlink:href="Espera__procesos_8hh.html" target="_top" xlink:title="Especificacion de la clase Espera_procesos.">
<polygon fill="white" stroke="black" points="2.98,-224.5 2.98,-243.5 115.98,-243.5 115.98,-224.5 2.98,-224.5"/>
<text text-anchor="middle" x="59.48" y="-231.5" font-family="Helvetica,sans-Serif" font-size="10.00">Espera_procesos.hh</text>
</a>
</g>
</g>
<!-- Node1&#45;&gt;Node2 -->
<g id="edge1" class="edge">
<title>Node1&#45;&gt;Node2</title>
<path fill="none" stroke="midnightblue" d="M154.58,-280.44C136.23,-271.68 107.48,-257.94 86.39,-247.86"/>
<polygon fill="midnightblue" stroke="midnightblue" points="87.84,-244.67 77.31,-243.52 84.82,-250.99 87.84,-244.67"/>
</g>
<!-- Node3 -->
<g id="node3" class="node">
<title>Node3</title>
<g id="a_node3"><a xlink:href="Cluster_8hh.html" target="_top" xlink:title="Especificación de la clase Cluster.">
<polygon fill="white" stroke="black" points="82.48,-112.5 82.48,-131.5 148.48,-131.5 148.48,-112.5 82.48,-112.5"/>
<text text-anchor="middle" x="115.48" y="-119.5" font-family="Helvetica,sans-Serif" font-size="10.00">Cluster.hh</text>
</a>
</g>
</g>
<!-- Node1&#45;&gt;Node3 -->
<g id="edge10" class="edge">
<title>Node1&#45;&gt;Node3</title>
<path fill="none" stroke="midnightblue" d="M169.42,-280.08C160.41,-253.83 133.87,-176.55 121.7,-141.12"/>
<polygon fill="midnightblue" stroke="midnightblue" points="124.98,-139.89 118.43,-131.57 118.36,-142.16 124.98,-139.89"/>
</g>
<!-- Node4 -->
<g id="node4" class="node">
<title>Node4</title>
<g id="a_node4"><a xlink:href="Procesador_8hh.html" target="_top" xlink:title="Especificacion de la clase Procesador.">
<polygon fill="white" stroke="black" points="115.48,-56.5 115.48,-75.5 201.48,-75.5 201.48,-56.5 115.48,-56.5"/>
<text text-anchor="middle" x="158.48" y="-63.5" font-family="Helvetica,sans-Serif" font-size="10.00">Procesador.hh</text>
</a>
</g>
</g>
<!-- Node1&#45;&gt;Node4 -->
<g id="edge11" class="edge">
<title>Node1&#45;&gt;Node4</title>
<path fill="none" stroke="midnightblue" d="M171.95,-280.17C171.18,-267.66 169.74,-244.09 168.48,-224 165.35,-173.95 161.57,-114.92 159.68,-85.55"/>
<polygon fill="midnightblue" stroke="midnightblue" points="163.17,-85.26 159.03,-75.51 156.18,-85.71 163.17,-85.26"/>
</g>
<!-- Node5 -->
<g id="node5" class="node">
<title>Node5</title>
<g id="a_node5"><a xlink:href="Proceso_8hh.html" target="_top" xlink:title="Especificacion de la clase Proceso.">
<polygon fill="white" stroke="black" points="52.48,-0.5 52.48,-19.5 122.48,-19.5 122.48,-0.5 52.48,-0.5"/>
<text text-anchor="middle" x="87.48" y="-7.5" font-family="Helvetica,sans-Serif" font-size="10.00">Proceso.hh</text>
</a>
</g>
</g>
<!-- Node1&#45;&gt;Node5 -->
<g id="edge12" class="edge">
<title>Node1&#45;&gt;Node5</title>
<path fill="none" stroke="midnightblue" d="M180.65,-280.38C196.41,-262.81 229.48,-220.94 229.48,-179 229.48,-179 229.48,-179 229.48,-121 229.48,-90.9 231.05,-77.98 210.48,-56 190.25,-34.38 158.78,-23.11 132.74,-17.26"/>
<polygon fill="midnightblue" stroke="midnightblue" points="133.19,-13.78 122.69,-15.2 131.78,-20.64 133.19,-13.78"/>
</g>
<!-- Node2&#45;&gt;Node3 -->
<g id="edge2" class="edge">
<title>Node2&#45;&gt;Node3</title>
<path fill="none" stroke="midnightblue" d="M68.02,-224.41C76.11,-215.84 88.09,-201.97 95.48,-188 103.25,-173.32 108.52,-155.16 111.69,-141.76"/>
<polygon fill="midnightblue" stroke="midnightblue" points="115.15,-142.34 113.87,-131.82 108.31,-140.84 115.15,-142.34"/>
</g>
<!-- Node2&#45;&gt;Node5 -->
<g id="edge9" class="edge">
<title>Node2&#45;&gt;Node5</title>
<path fill="none" stroke="midnightblue" d="M41.4,-224.39C27.92,-216.87 10.51,-204.57 2.48,-188 -1.39,-180 0.3,-176.62 2.48,-168 16.57,-112.39 54.72,-55.13 74.77,-27.67"/>
<polygon fill="midnightblue" stroke="midnightblue" points="77.65,-29.66 80.82,-19.54 72.04,-25.48 77.65,-29.66"/>
</g>
<!-- Node6 -->
<g id="node6" class="node">
<title>Node6</title>
<g id="a_node6"><a xlink:href="Prioridad_8hh.html" target="_top" xlink:title="Especificacion de la clase Prioridad.">
<polygon fill="white" stroke="black" points="11.98,-168.5 11.98,-187.5 86.98,-187.5 86.98,-168.5 11.98,-168.5"/>
<text text-anchor="middle" x="49.48" y="-175.5" font-family="Helvetica,sans-Serif" font-size="10.00">Prioridad.hh</text>
</a>
</g>
</g>
<!-- Node2&#45;&gt;Node6 -->
<g id="edge6" class="edge">
<title>Node2&#45;&gt;Node6</title>
<path fill="none" stroke="midnightblue" d="M57.83,-224.08C56.51,-216.93 54.6,-206.64 52.95,-197.69"/>
<polygon fill="midnightblue" stroke="midnightblue" points="56.37,-196.95 51.1,-187.75 49.48,-198.22 56.37,-196.95"/>
</g>
<!-- Node3&#45;&gt;Node4 -->
<g id="edge3" class="edge">
<title>Node3&#45;&gt;Node4</title>
<path fill="none" stroke="midnightblue" d="M122.58,-112.08C128.72,-104.38 137.75,-93.03 145.22,-83.65"/>
<polygon fill="midnightblue" stroke="midnightblue" points="148.02,-85.75 151.52,-75.75 142.55,-81.39 148.02,-85.75"/>
</g>
<!-- Node3&#45;&gt;Node5 -->
<g id="edge5" class="edge">
<title>Node3&#45;&gt;Node5</title>
<path fill="none" stroke="midnightblue" d="M113.29,-112.37C108.77,-94.62 98.34,-53.67 92.22,-29.6"/>
<polygon fill="midnightblue" stroke="midnightblue" points="95.53,-28.42 89.67,-19.59 88.75,-30.15 95.53,-28.42"/>
</g>
<!-- Node4&#45;&gt;Node5 -->
<g id="edge4" class="edge">
<title>Node4&#45;&gt;Node5</title>
<path fill="none" stroke="midnightblue" d="M147.08,-56.32C136.38,-48.18 120.14,-35.84 107.32,-26.09"/>
<polygon fill="midnightblue" stroke="midnightblue" points="109.18,-23.1 99.1,-19.83 104.94,-28.67 109.18,-23.1"/>
</g>
<!-- Node6&#45;&gt;Node3 -->
<g id="edge8" class="edge">
<title>Node6&#45;&gt;Node3</title>
<path fill="none" stroke="midnightblue" d="M60.09,-168.32C69.94,-160.26 84.83,-148.08 96.7,-138.37"/>
<polygon fill="midnightblue" stroke="midnightblue" points="99.16,-140.88 104.69,-131.83 94.73,-135.46 99.16,-140.88"/>
</g>
<!-- Node6&#45;&gt;Node5 -->
<g id="edge7" class="edge">
<title>Node6&#45;&gt;Node5</title>
<path fill="none" stroke="midnightblue" d="M51.53,-168.08C57.51,-141.95 75.07,-65.21 83.23,-29.58"/>
<polygon fill="midnightblue" stroke="midnightblue" points="86.7,-30.1 85.52,-19.57 79.88,-28.53 86.7,-30.1"/>
</g>
</g>
</svg>
